<svg viewBox="0 0 109 52" fill="none" xmlns="http://www.w3.org/2000/svg">
<path d="M105.235 3.445V48.568H3.445V3.445H105.235ZM0 0V52H108.68V0H0ZM18.525 18.473H24.882C27.781 18.473 29.718 20.228 29.718 22.62C29.718 23.933 29.159 24.96 27.833 25.714C29.354 26.338 30.277 27.521 30.277 29.211C30.277 31.72 28.132 33.501 25.272 33.501H18.538L18.525 18.473ZM24.778 24.726C26.117 24.726 27.157 23.972 27.157 22.776C27.157 21.58 26.26 20.839 24.817 20.839H21.021V24.726H24.778ZM25.194 31.148C26.611 31.148 27.703 30.329 27.703 29.081C27.703 27.833 26.715 27.001 25.233 27.001H21.008V31.148H25.194ZM32.825 18.473H39.117C41.977 18.473 44.122 20.41 44.122 23.088C44.122 25.324 42.536 26.845 40.833 27.43C42.341 28.782 43.537 30.667 44.499 33.501H41.665C40.82 30.94 39.624 29.081 38.012 27.677H35.269V33.501H32.825V18.473ZM39.13 25.428C40.586 25.428 41.6 24.375 41.6 23.114C41.6 21.996 40.807 20.839 39.065 20.839H35.269V25.428H39.13ZM51.74 18.473H53.755L60.151 33.501H57.447L56.186 30.381H49.335L48.087 33.501H45.357L51.74 18.473ZM55.237 28.054L52.728 21.918L50.284 28.054H55.237ZM67.756 18.2C70.551 18.2 72.891 19.643 74.113 21.827L72.033 23.179C71.149 21.632 69.784 20.579 67.873 20.579C65.169 20.579 63.063 22.919 63.063 25.987C63.063 29.055 65.208 31.395 67.977 31.395C69.823 31.395 71.24 30.381 72.059 28.834L74.23 30.212C72.839 32.422 70.616 33.774 67.834 33.774C63.674 33.774 60.411 30.42 60.411 25.987C60.411 21.554 63.622 18.2 67.756 18.2ZM76.401 18.473H78.936V25.285L85.189 18.473H88.322L81.497 25.883L88.608 33.501H85.345L78.949 26.715V33.501H76.414V18.473H76.401ZM90.285 31.512C90.285 30.29 91.299 29.276 92.521 29.276C93.743 29.276 94.757 30.29 94.757 31.512C94.757 32.734 93.743 33.748 92.521 33.748C91.286 33.748 90.285 32.734 90.285 31.512Z" fill="#CB003D"/>
</svg>
